<svg width="28" height="28" viewBox="0 0 28 28" fill="none" xmlns="http://www.w3.org/2000/svg">
<path d="M23.8 6.3C23.8 7.4598 22.8598 8.4 21.7 8.4C20.5402 8.4 19.6 7.4598 19.6 6.3C19.6 5.1402 20.5402 4.2 21.7 4.2C22.8598 4.2 23.8 5.1402 23.8 6.3Z" fill="white"/>
<path fill-rule="evenodd" clip-rule="evenodd" d="M14 21C17.866 21 21 17.866 21 14C21 10.134 17.866 7 14 7C10.134 7 7 10.134 7 14C7 17.866 10.134 21 14 21ZM14 18.2C16.3196 18.2 18.2 16.3196 18.2 14C18.2 11.6804 16.3196 9.8 14 9.8C11.6804 9.8 9.8 11.6804 9.8 14C9.8 16.3196 11.6804 18.2 14 18.2Z" fill="white"/>
<path fill-rule="evenodd" clip-rule="evenodd" d="M0 13.44C0 8.73556 0 6.38334 0.915545 4.58648C1.72088 3.00592 3.00592 1.72088 4.58648 0.915545C6.38334 0 8.73556 0 13.44 0H14.56C19.2644 0 21.6167 0 23.4135 0.915545C24.9941 1.72088 26.2791 3.00592 27.0845 4.58648C28 6.38334 28 8.73556 28 13.44V14.56C28 19.2644 28 21.6167 27.0845 23.4135C26.2791 24.9941 24.9941 26.2791 23.4135 27.0845C21.6167 28 19.2644 28 14.56 28H13.44C8.73556 28 6.38334 28 4.58648 27.0845C3.00592 26.2791 1.72088 24.9941 0.915545 23.4135C0 21.6167 0 19.2644 0 14.56V13.44ZM13.44 2.8H14.56C16.9584 2.8 18.5888 2.80218 19.8491 2.90514C21.0767 3.00544 21.7044 3.18723 22.1423 3.41036C23.1961 3.94725 24.0527 4.80395 24.5896 5.85765C24.8128 6.29557 24.9946 6.92334 25.0949 8.15091C25.1978 9.41116 25.2 11.0416 25.2 13.44V14.56C25.2 16.9584 25.1978 18.5888 25.0949 19.8491C24.9946 21.0767 24.8128 21.7044 24.5896 22.1423C24.0527 23.1961 23.1961 24.0527 22.1423 24.5896C21.7044 24.8128 21.0767 24.9946 19.8491 25.0949C18.5888 25.1978 16.9584 25.2 14.56 25.2H13.44C11.0416 25.2 9.41116 25.1978 8.15091 25.0949C6.92334 24.9946 6.29557 24.8128 5.85765 24.5896C4.80395 24.0527 3.94725 23.1961 3.41036 22.1423C3.18723 21.7044 3.00544 21.0767 2.90514 19.8491C2.80218 18.5888 2.8 16.9584 2.8 14.56V13.44C2.8 11.0416 2.80218 9.41116 2.90514 8.15091C3.00544 6.92334 3.18723 6.29557 3.41036 5.85765C3.94725 4.80395 4.80395 3.94725 5.85765 3.41036C6.29557 3.18723 6.92334 3.00544 8.15091 2.90514C9.41116 2.80218 11.0416 2.8 13.44 2.8Z" fill="white"/>
</svg>
